<?xml version="1.0" encoding="UTF-8"?>
<svg id="Camada_2" data-name="Camada 2" xmlns="http://www.w3.org/2000/svg" xmlns:xlink="http://www.w3.org/1999/xlink" viewBox="0 0 1258.49 955.02">
  <defs>
    <style>
      .cls-1 {
        opacity: .54;
      }

      .cls-1, .cls-2 {
        fill: blue;
      }

      .cls-3 {
        font-family: Tahoma, Tahoma;
        font-size: 130px;
      }

      .cls-4 {
        letter-spacing: .02em;
      }

      .cls-4, .cls-5 {
        fill: #1b1464;
      }

      .cls-6 {
        fill: #662d90;
      }

      .cls-6, .cls-5, .cls-7 {
        letter-spacing: .03em;
      }

      .cls-2 {
        opacity: 0;
      }

      .cls-8 {
        fill: url(#Gradiente_sem_nome_351);
        opacity: .78;
      }

      .cls-9 {
        fill: #85c7b2;
        opacity: .1;
      }
    </style>
    <linearGradient id="Gradiente_sem_nome_351" data-name="Gradiente sem nome 351" x1="341.1" y1="526.37" x2="799.69" y2="526.37" gradientUnits="userSpaceOnUse">
      <stop offset="0" stop-color="#0085cc"/>
      <stop offset="1" stop-color="#562466"/>
    </linearGradient>
  </defs>
  <g id="Camada_1-2" data-name="Camada 1">
    <g>
      <g>
        <path class="cls-8" d="M766.04,466.05c43.29-32.12,44.88-96.28,4.39-131.87-1.33-1.17-2.67-2.37-3.99-3.61-4.15-3.54-8.49-7.33-12.93-11.18-11.75-10.18-24.18-20.8-35.49-28.69-1.01-.45-1.64-.33-2.34.23-4.88,4.1-27.92,22.72-47.34,38.36l-.12.09c-7.6,6.12-14.66,11.79-19.82,15.96-7.22,5.83-17.19,13.83-27.21,21.92-.54.45-1.17.98-1.92,1.59-.14.13-.31.27-.47.4-.35.32-.78.65-1.22,1.01-.28.25-.59.47-.89.74-.31.25-.59.49-.9.74-16.67,14.37-64.34,55.56-114.89,99.35l-5.61,4.86-32.09,28.06-.11-.13c-53.45,46.39-102.2,88.87-112.36,98.18-.26.24-.58.37-.91.38l-7.88,136.55-.83-.51c.38.3.75.61,1.13.93.84.71,1.69,1.52,2.55,2.54,23.3,23.53,87.45,28.48,119.74,5.29.26-.18.55-.27.84-.27.34,0,.67.12.94.36.57.51,1.44.48,1.98-.07l18.71-19.19c.57-.58.54-1.52-.07-2.06l-65.97-58.65c.3-.27.61-.51.87-.76,40.76-35.95,111.28-98.18,175.53-154.86,29.6-26.11,57.89-51.05,81.32-71.71,1.79-1.84,4.27-3.03,6.85-3.39,3.15-.47,6.41.29,8.71,2.65,3.75,3.25,16.04,13.89,27,23.37,6.05,5.27,10.58,9.1,15.5,13.43,3.14,2.75,3.54,3.4,6.76,2.17l.33-.13c8.13-3.04,15.57-7.15,22.22-12.08Z"/>
        <path class="cls-1" d="M268.39,675.65c.2.18.46.29.73.33.43.07.72.2,1.4.76,1.07.92,3.02,2.67,5.65,4.98,15.03,13.16,44.06,38.99,61.2,53.99.13.12.27.23.4.35,1.1,1.05,2.2,1.88,3.31,2.77l.02.02.83.51,7.88-136.55c-.35.01-.71-.11-1-.37-.17-.15-.34-.31-.52-.46-31.26-27.82-119.13-104.62-140.71-123.84,4.57,4.28,11.17,10.35,15.25,14.14,3.19,2.96,4.34,4.03,3.52,3.4-4.63-3.6-33.13-30.59-46.59-42.4,4.24,3.3,14.99,13.61,19.91,17.68.92.81,1.34,1.19,1.46,1.26-.07-.09-.73-.69-1.57-1.48-11.9-11-74.34-68.71-81.82-75.64-1.43-1.14-1.29-3.4.11-4.64,5.63-4.99,40.49-35.72,53.79-47.46,3.62-3.22,4.56-3.71,5.25-5.29.08-.2.21-.38.38-.53,11.79-10.2,218.5-193.23,237.1-209.02.54-.46,1.31-.45,1.85,0,9.44,8.08,65.11,57.54,72.14,63.63.43.49.47.81.26,1.1-1.66,1.55-2.93,2.53-5.25,4.64-49.43,43.41-183.32,162.14-211.28,186.03-6.29,5.54-13.94,12.28-18.39,16.21-1.9,1.7-3.17,2.77-3.69,3.31-.3.36-.37.54-.25.76,5.79,5.43,45.36,40.01,66.33,58.63,6.61,5.38,9.4,9.01,12.07,10.33.5.24,1.09.15,1.51-.21,16.56-13.95,226.94-200.2,237.53-209.31.38-.45.1-.6.97-1.01,4.2-1.3,11.23-3.34,15.13-6.54,18.78-13.85,32.41-45.84,29-67.96-.05-.34-.22-.65-.48-.87C571.98,152.62,393.38-7.08,400.14.24c-3.07,2.02-6.29,5.65-13.14,11.37-45.27,39.49-42.03,38.01-91.5,81.48C212.34,168.22,41.26,313.44,32.32,328.27c-.09.15-.2.28-.34.39-39.98,30.95-43.21,94.17-5.54,127.9.05.04.09.08.14.11M445.01,299.7l-3.9,3.6,4.23-4.06-.33.46Z"/>
        <polygon class="cls-9" points="589.6 378.94 589.27 379.4 585.37 383 589.6 378.94"/>
        <path class="cls-2" d="M337.37,735.33c.13.12.27.23.4.35,1.1,1.05,2.2,1.88,3.31,2.77"/>
        <path class="cls-2" d="M268.39,675.27c.2.18.46.29.73.33.43.07.72.2,1.4.76,1.07.92,3.02,2.67,5.65,4.98"/>
        <path class="cls-2" d="M349.9,600.84l-.09,1.59c-.35.01-.71-.11-1-.37-.17-.15-.34-.31-.52-.46l1.61-.76Z"/>
      </g>
      <text class="cls-3" transform="translate(0 900.56)"><tspan class="cls-5" x="0" y="0">E</tspan><tspan class="cls-4" x="76.18" y="0">v</tspan><tspan class="cls-5" x="143.17" y="0">olute</tspan><tspan class="cls-7" x="444.11" y="0"> </tspan><tspan class="cls-6" x="487.98" y="0">Code</tspan></text>
      <text/>
    </g>
  </g>
</svg>